<svg width="16" height="15" viewBox="0 0 16 15" fill="none" xmlns="http://www.w3.org/2000/svg">
  <path
    d="M5.14229 14.4671C5.08195 14.4671 5.02266 14.4513 4.97029 14.4213C4.91793 14.3913 4.87431 14.3482 4.84377 14.2962C3.54988 12.0918 0.102014 7.40039 0.0673297 7.35324C0.0180667 7.28628 -0.00545387 7.20383 0.0010672 7.12096C0.00758826 7.03808 0.0437154 6.96032 0.102845 6.90189L1.1627 5.8546C1.22028 5.79771 1.29598 5.76279 1.37664 5.75592C1.4573 5.74905 1.53781 5.77067 1.60418 5.81701L5.07012 8.23718C7.3744 5.27701 9.51577 3.23412 10.9232 2.0304C12.5008 0.680988 13.5038 0.0746309 13.5458 0.0493616C13.5996 0.0170655 13.6611 3.1801e-06 13.7239 4.63672e-09H15.4385C15.5086 -1.14789e-05 15.5772 0.0213079 15.635 0.0611315C15.6927 0.100955 15.7371 0.157402 15.762 0.222987C15.787 0.288572 15.7914 0.360199 15.7748 0.428369C15.7581 0.496539 15.7211 0.558032 15.6687 0.604696C13.1269 2.86854 10.4842 6.46553 8.71488 9.08429C6.79154 11.9309 5.45636 14.2689 5.4431 14.2922C5.41304 14.345 5.36964 14.3889 5.31724 14.4196C5.26484 14.4503 5.2053 14.4667 5.14458 14.467L5.14229 14.4671Z"
    fill="white" />
</svg>