<svg width="18" height="18" viewBox="0 0 18 18" fill="none" xmlns="http://www.w3.org/2000/svg">
<path d="M8.99995 2.19922C11.2 2.19922 11.5 2.19922 12.4 2.19922C13.2 2.19922 13.6 2.39922 13.9 2.49922C14.3 2.69922 14.6 2.79922 14.9 3.09922C15.2 3.39922 15.4 3.69922 15.5 4.09922C15.6 4.39922 15.7 4.79922 15.8 5.59922C15.8 6.49922 15.8 6.69922 15.8 8.99922C15.8 11.2992 15.8 11.4992 15.8 12.3992C15.8 13.1992 15.6 13.5992 15.5 13.8992C15.3 14.2992 15.2 14.5992 14.9 14.8992C14.6 15.1992 14.3 15.3992 13.9 15.4992C13.6 15.5992 13.2 15.6992 12.4 15.7992C11.5 15.7992 11.3 15.7992 8.99995 15.7992C6.69995 15.7992 6.49995 15.7992 5.59995 15.7992C4.79995 15.7992 4.39995 15.5992 4.09995 15.4992C3.69995 15.2992 3.39995 15.1992 3.09995 14.8992C2.79995 14.5992 2.59995 14.2992 2.49995 13.8992C2.39995 13.5992 2.29995 13.1992 2.19995 12.3992C2.19995 11.4992 2.19995 11.2992 2.19995 8.99922C2.19995 6.69922 2.19995 6.49922 2.19995 5.59922C2.19995 4.79922 2.39995 4.39922 2.49995 4.09922C2.69995 3.69922 2.79995 3.39922 3.09995 3.09922C3.39995 2.79922 3.69995 2.59922 4.09995 2.49922C4.39995 2.39922 4.79995 2.29922 5.59995 2.19922C6.49995 2.19922 6.79995 2.19922 8.99995 2.19922ZM8.99995 0.699219C6.69995 0.699219 6.49995 0.699219 5.59995 0.699219C4.69995 0.699219 4.09995 0.899219 3.59995 1.09922C3.09995 1.29922 2.59995 1.59922 2.09995 2.09922C1.59995 2.59922 1.39995 2.99922 1.09995 3.59922C0.899952 4.09922 0.799951 4.69922 0.699951 5.59922C0.699951 6.49922 0.699951 6.79922 0.699951 8.99922C0.699951 11.2992 0.699951 11.4992 0.699951 12.3992C0.699951 13.2992 0.899952 13.8992 1.09995 14.3992C1.29995 14.8992 1.59995 15.3992 2.09995 15.8992C2.59995 16.3992 2.99995 16.5992 3.59995 16.8992C4.09995 17.0992 4.69995 17.1992 5.59995 17.2992C6.49995 17.2992 6.79995 17.2992 8.99995 17.2992C11.2 17.2992 11.5 17.2992 12.4 17.2992C13.3 17.2992 13.9 17.0992 14.4 16.8992C14.9 16.6992 15.4 16.3992 15.9 15.8992C16.4 15.3992 16.6 14.9992 16.9 14.3992C17.1 13.8992 17.1999 13.2992 17.2999 12.3992C17.2999 11.4992 17.2999 11.1992 17.2999 8.99922C17.2999 6.79922 17.2999 6.49922 17.2999 5.59922C17.2999 4.69922 17.1 4.09922 16.9 3.59922C16.7 3.09922 16.4 2.59922 15.9 2.09922C15.4 1.59922 15 1.39922 14.4 1.09922C13.9 0.899219 13.3 0.799219 12.4 0.699219C11.5 0.699219 11.3 0.699219 8.99995 0.699219Z" fill="#1C1C1C"/>
<path d="M8.99995 4.69922C6.59995 4.69922 4.69995 6.59922 4.69995 8.99922C4.69995 11.3992 6.59995 13.2992 8.99995 13.2992C11.4 13.2992 13.3 11.3992 13.3 8.99922C13.3 6.59922 11.4 4.69922 8.99995 4.69922ZM8.99995 11.7992C7.49995 11.7992 6.19995 10.5992 6.19995 8.99922C6.19995 7.49922 7.39995 6.19922 8.99995 6.19922C10.5 6.19922 11.8 7.39922 11.8 8.99922C11.8 10.4992 10.5 11.7992 8.99995 11.7992Z" fill="#1C1C1C"/>
<path d="M13.4 5.59922C13.9522 5.59922 14.4 5.1515 14.4 4.59922C14.4 4.04693 13.9522 3.59922 13.4 3.59922C12.8477 3.59922 12.4 4.04693 12.4 4.59922C12.4 5.1515 12.8477 5.59922 13.4 5.59922Z" fill="#1C1C1C"/>
</svg>
