<svg width="159" height="58" viewBox="0 0 159 58" fill="none" xmlns="http://www.w3.org/2000/svg">
<g clip-path="url(#clip0_124_1313)">
<path d="M117.359 14.3203H117.249V43.7678H117.359V14.3203Z" fill="#D0D0D0"/>
<mask id="mask0_124_1313" style="mask-type:luminance" maskUnits="userSpaceOnUse" x="124" y="13" width="21" height="28">
<path d="M127.441 16.4793C125.58 18.2181 124.637 20.4337 124.637 23.0699C124.637 25.2575 125.275 27.3048 126.525 29.1838C127.607 30.7824 129.494 32.8297 132.353 35.4379L136.794 39.6447C137.599 40.2617 138.765 40.1215 139.404 39.3924C140.098 38.6071 140.042 37.4011 139.292 36.6719C136.988 34.5685 137.349 34.8771 135.046 32.7737C132.659 30.6142 130.993 28.7912 130.077 27.3328C129.216 25.9867 128.772 24.5844 128.772 23.1821C128.772 21.5555 129.327 20.2655 130.438 19.2278C131.604 18.1621 132.936 17.6572 134.574 17.6572C136.183 17.6572 137.655 18.0779 138.904 18.9192C139.681 19.4802 140.486 20.2374 141.319 21.2189C141.319 21.2189 141.319 21.2189 141.291 21.2189C141.513 21.5275 141.902 22.1164 142.069 22.9858C142.263 24.1076 141.93 25.0051 141.763 25.3416C142.402 25.3416 143.289 25.0331 144.011 24.2478C144.733 23.4345 145.649 20.4337 143.678 18.0779C143.178 17.4889 142.679 16.7879 141.125 15.7502C139.265 14.5162 136.96 13.8711 134.352 13.8711C131.631 13.8711 129.299 14.7686 127.441 16.4793Z" fill="white"/>
</mask>
<g mask="url(#mask0_124_1313)">
<path d="M145.676 13.8711H124.637V40.2336H145.676V13.8711Z" fill="url(#paint0_linear_124_1313)"/>
</g>
<mask id="mask1_124_1313" style="mask-type:luminance" maskUnits="userSpaceOnUse" x="124" y="13" width="21" height="13">
<path d="M127.441 16.4793C125.58 18.2181 124.637 20.4337 124.637 23.0699C124.637 24.0235 124.748 24.949 124.998 25.8465C125.081 24.8649 125.358 23.1821 126.497 21.5275C129.161 17.6852 134.047 17.6572 134.574 17.6572C136.183 17.6572 137.655 18.0779 138.904 18.9192C139.681 19.4802 140.486 20.2374 141.319 21.2189C141.319 21.2189 141.319 21.2189 141.291 21.2189C141.513 21.5275 141.902 22.1164 142.069 22.9858C142.263 24.1076 141.93 25.0051 141.763 25.3416C142.402 25.3416 143.289 25.0331 144.011 24.2478C144.733 23.4345 145.649 20.4337 143.678 18.0779C143.178 17.4889 142.679 16.7879 141.125 15.7502C139.265 14.5162 136.96 13.8711 134.352 13.8711C131.631 13.8711 129.299 14.7686 127.441 16.4793Z" fill="white"/>
</mask>
<g mask="url(#mask1_124_1313)">
<path d="M145.676 13.8711H124.637V25.8465H145.676V13.8711Z" fill="url(#paint1_linear_124_1313)"/>
</g>
<mask id="mask2_124_1313" style="mask-type:luminance" maskUnits="userSpaceOnUse" x="138" y="13" width="22" height="32">
<path d="M149.229 13.8711C146.592 13.8711 144.317 14.488 142.457 15.7502C141.929 16.1147 141.513 16.4232 141.18 16.7318C141.069 16.8159 140.958 16.9281 140.874 17.0122C140.458 17.4048 140.18 17.7695 139.931 18.0779C137.961 20.4057 138.849 23.4345 139.597 24.2478C140.319 25.0331 141.208 25.3416 141.846 25.3416C141.707 25.0051 141.346 24.1076 141.541 22.9858C141.68 22.1164 142.096 21.5275 142.318 21.2189C143.123 20.2374 143.928 19.4521 144.733 18.9192C145.983 18.0779 147.453 17.6572 149.063 17.6572C150.673 17.6572 152.033 18.1621 153.199 19.2278C154.336 20.2655 154.864 21.5555 154.864 23.1821C154.864 24.5563 154.42 25.9587 153.56 27.3329C152.644 28.7631 150.978 30.5861 148.591 32.7737L140.597 40.8226C140.597 40.8226 140.597 40.8226 140.569 40.8507C140.236 41.1872 140.014 41.6639 140.014 42.1968C140.014 43.2626 140.874 44.132 141.929 44.132C142.429 44.132 142.901 43.9356 143.234 43.5991L143.262 43.571L143.29 43.543L151.284 35.466C154.142 32.8578 156.03 30.8105 157.113 29.2118C158.362 27.3329 159 25.2575 159 23.098C159 20.4618 158.057 18.2462 156.196 16.5073C154.309 14.7686 151.978 13.8711 149.229 13.8711Z" fill="white"/>
</mask>
<g mask="url(#mask2_124_1313)">
<path d="M128.328 17.4314L140.403 50.9456L168.577 40.5688L156.501 7.05469L128.328 17.4314Z" fill="white"/>
</g>
<path d="M14.6002 14.3172C10.9085 14.3172 7.71647 15.5792 5.02403 17.9911C4.80198 18.1874 4.57992 18.3837 4.35786 18.608C1.47113 21.4407 0 24.9463 0 29.0129C0 33.0514 1.49888 36.529 4.30235 39.3897C6.24534 41.3527 8.46592 42.671 10.9918 43.3159C12.1299 43.5965 13.3234 43.7367 14.5725 43.7367C15.8215 43.7367 17.0429 43.5965 18.1809 43.3159C18.514 43.2318 18.8193 43.1477 19.1247 43.0355C19.2357 42.9794 19.3744 42.9514 19.4855 42.8953H19.5132C21.2342 42.2783 22.7886 41.3248 24.232 40.0066L28.7286 43.2879L29.145 43.5965V14.2891L24.232 18.0191C21.5117 15.5792 18.2919 14.3172 14.6002 14.3172ZM20.79 35.295C19.4577 36.6413 17.9033 37.4545 16.1547 37.7349C15.6551 37.8192 15.1553 37.8751 14.6002 37.8751C12.1576 37.8751 10.1036 37.0619 8.38264 35.323C6.66171 33.5843 5.85675 31.4809 5.85675 29.041C5.85675 26.7973 6.52291 24.8622 7.96629 23.2074C8.10507 23.0392 8.2161 22.899 8.38264 22.7307C10.1036 20.992 12.1576 20.1786 14.6002 20.1786C17.0151 20.1786 19.0691 21.02 20.79 22.7588C22.511 24.4976 23.3437 26.573 23.3437 29.0129C23.3437 31.4809 22.511 33.5562 20.79 35.295Z" fill="white"/>
<path d="M67.7283 43.0386C69.1439 43.5154 70.6428 43.7678 72.225 43.7678C73.7794 43.7678 75.306 43.5154 76.7494 43.0386C77.8041 42.7021 78.8034 42.2254 79.8026 41.6083C82.0509 40.2061 83.8274 38.327 85.0765 35.9712L85.6316 34.9335L80.552 32.0449L79.9691 33.1667C79.2197 34.597 78.165 35.7749 76.7772 36.6163C75.3892 37.4576 73.8904 37.8783 72.2527 37.8783C70.8371 37.8783 69.5047 37.5979 68.2834 36.9248L80.8296 25.7347L85.0765 21.9486L84.5491 21.0792C83.2723 19.0318 81.468 17.4333 79.3863 16.2274C77.8596 15.3579 76.2219 14.7409 74.5011 14.5166C73.7794 14.3763 73.0299 14.3203 72.2805 14.3203C71.8918 14.3203 71.531 14.3483 71.1424 14.3483C67.645 14.6007 64.5917 16.0311 62.0381 18.5832C59.1791 21.4437 57.708 24.9494 57.708 29.016C57.708 31.3718 58.2354 33.5313 59.2069 35.4945C59.9008 36.8967 60.8722 38.1868 62.0103 39.3647C63.6757 41.1035 65.591 42.3375 67.7283 43.0386ZM63.5925 27.6418C63.8423 25.7627 64.6195 24.1361 66.0073 22.7338C66.2572 22.5095 66.4793 22.2571 66.729 22.0608H66.7567C68.3112 20.7707 70.1432 20.1817 72.225 20.1817C73.8903 20.1817 75.4169 20.6023 76.8048 21.4718L64.2864 32.7179C63.759 31.54 63.5092 30.3341 63.5092 29.016C63.5092 28.5393 63.537 28.0905 63.5925 27.6418Z" fill="white"/>
<path d="M49.1573 43.6824H54.9863V26.4065C54.9863 23.2654 53.9315 20.5169 51.7109 18.3013C49.5181 16.0857 46.7979 15.0201 43.6613 15.0201C40.9134 15.0201 38.4707 15.8894 36.4167 17.6844L32.3643 14.375V43.7384H38.1933V26.4065C38.1933 24.8639 38.7206 23.5739 39.7753 22.5081C40.8579 21.4144 42.1347 20.9096 43.6336 20.9096C45.1602 20.9096 46.437 21.4144 47.5196 22.4801C48.6298 23.5739 49.1018 24.892 49.1018 26.4345V43.6824H49.1573Z" fill="white"/>
<path d="M109.974 43.7359L100.536 26.9367L107.614 14.3164H100.73L97.0665 20.8229L93.4025 14.3164H86.4911L93.6524 26.9367L84.1317 43.7359H91.0433L97.0665 33.0507L103.062 43.7359H109.974Z" fill="white"/>
</g>
<defs>
<linearGradient id="paint0_linear_124_1313" x1="124.614" y1="27.0715" x2="144.856" y2="27.0715" gradientUnits="userSpaceOnUse">
<stop stop-color="#E0E0E0"/>
<stop offset="0.45" stop-color="#F0F0F0"/>
<stop offset="1" stop-color="white"/>
</linearGradient>
<linearGradient id="paint1_linear_124_1313" x1="124.614" y1="19.8916" x2="144.856" y2="19.8916" gradientUnits="userSpaceOnUse">
<stop stop-color="#E7E7E7"/>
<stop offset="0.55" stop-color="#F3F3F3"/>
<stop offset="1" stop-color="white"/>
</linearGradient>
<clipPath id="clip0_124_1313">
<rect width="159" height="58" fill="white"/>
</clipPath>
</defs>
</svg>
