<svg width="12" height="20" viewBox="0 0 12 20" fill="none" xmlns="http://www.w3.org/2000/svg">
<path fill-rule="evenodd" clip-rule="evenodd" d="M10.8763 5.47025C10.8763 8.13947 8.70027 10.3155 6.03093 10.3155C3.33274 10.3155 1.15672 8.13947 1.15672 5.47025C1.15672 2.80101 3.33274 0.625 6.03093 0.625C8.70027 0.625 10.8763 2.80101 10.8763 5.47025ZM8.03294 5.47025C8.03294 4.36775 7.13347 3.46832 6.03093 3.46832C4.89947 3.46832 4 4.36775 4.02907 5.47025C4.02907 6.57277 4.92853 7.47213 6.03093 7.47213C7.13347 7.47213 8.03294 6.57277 8.03294 5.47025Z" fill="#1C1C1C"/>
<path d="M10.7892 13.1299C9.91881 13.6811 8.96134 14.0583 7.97494 14.2904L10.7312 16.9596C11.2824 17.5109 11.2824 18.4103 10.7312 18.9616C10.18 19.5128 9.28054 19.5128 8.72934 18.9616L6.06 16.2923L3.39081 18.9616C3.10066 19.2227 2.7525 19.3677 2.37533 19.3677C1.99815 19.3677 1.64999 19.2517 1.35986 18.9616C0.808587 18.4103 0.808587 17.5109 1.35986 16.9596L4.05814 14.2613C3.07164 14.0292 2.1142 13.6521 1.2438 13.1008C0.576483 12.6947 0.37339 11.8243 0.750563 11.1569C1.18578 10.4896 2.05618 10.3156 2.72349 10.7217C4.6964 11.9693 7.27854 11.9693 9.25148 10.7217C9.91881 10.2865 10.8183 10.4896 11.2244 11.1569C11.6596 11.8243 11.4565 12.7236 10.7892 13.1299Z" fill="#1C1C1C"/>
</svg>
