<svg width="22" height="15" viewBox="0 0 22 15" fill="none" xmlns="http://www.w3.org/2000/svg">
<path d="M12.024 14.0492C4.72801 14.0492 0.568006 9.05723 0.397339 0.737229H4.06667C4.18401 6.83856 6.87201 9.4199 9.00534 9.95323V0.737229H12.4507V5.9959C14.552 5.7719 16.7707 3.3719 17.5173 0.726562H20.952C20.672 2.09591 20.1125 3.3928 19.3087 4.53619C18.5048 5.67959 17.4738 6.64493 16.28 7.3719C17.6122 8.03496 18.7887 8.97291 19.7319 10.1239C20.6751 11.2749 21.3636 12.6127 21.752 14.0492H17.9653C17.1547 11.5212 15.128 9.55856 12.4507 9.29189V14.0492H12.0347H12.024Z" fill="#1C1C1C"/>
</svg>
